<svg width="158" height="99" viewBox="0 0 158 99" fill="none" xmlns="http://www.w3.org/2000/svg">
<path d="M0.5 8C0.5 3.85787 3.85786 0.5 8 0.5H150C154.142 0.5 157.5 3.85786 157.5 8V91C157.5 95.1421 154.142 98.5 150 98.5H8C3.85786 98.5 0.5 95.1421 0.5 91V8Z" fill="#F9FAFB" style="fill:#F9FAFB;fill:color(display-p3 0.9765 0.9804 0.9843);fill-opacity:1;"/>
<path d="M0.5 8C0.5 3.85787 3.85786 0.5 8 0.5H150C154.142 0.5 157.5 3.85786 157.5 8V91C157.5 95.1421 154.142 98.5 150 98.5H8C3.85786 98.5 0.5 95.1421 0.5 91V8Z" stroke="#E5E7EB" style="stroke:#E5E7EB;stroke:color(display-p3 0.8980 0.9059 0.9216);stroke-opacity:1;"/>
<g filter="url(#filter0_ddd_1011_19173)">
<path d="M110 83C110 80.7909 111.791 79 114 79H146C148.209 79 150 80.7909 150 83V87C150 89.2091 148.209 91 146 91H114C111.791 91 110 89.2091 110 87V83Z" fill="#F1F3F5" style="fill:#F1F3F5;fill:color(display-p3 0.9451 0.9529 0.9608);fill-opacity:1;"/>
</g>
<path d="M8 11C8 9.34315 9.34315 8 11 8H37C38.6569 8 40 9.34315 40 11C40 12.6569 38.6569 14 37 14H11C9.34315 14 8 12.6569 8 11Z" fill="#F1F3F5" style="fill:#F1F3F5;fill:color(display-p3 0.9451 0.9529 0.9608);fill-opacity:1;"/>
<rect x="8" y="22" width="94" height="69" rx="3" fill="#F1F3F5" style="fill:#F1F3F5;fill:color(display-p3 0.9451 0.9529 0.9608);fill-opacity:1;"/>
<path d="M134 11C134 9.34315 135.343 8 137 8H147C148.657 8 150 9.34315 150 11C150 12.6569 148.657 14 147 14H137C135.343 14 134 12.6569 134 11Z" fill="#F1F3F5" style="fill:#F1F3F5;fill:color(display-p3 0.9451 0.9529 0.9608);fill-opacity:1;"/>
<path d="M114 11C114 9.34315 115.343 8 117 8H127C128.657 8 130 9.34315 130 11C130 12.6569 128.657 14 127 14H117C115.343 14 114 12.6569 114 11Z" fill="#F1F3F5" style="fill:#F1F3F5;fill:color(display-p3 0.9451 0.9529 0.9608);fill-opacity:1;"/>
<rect x="110" y="22" width="40" height="6" rx="2" fill="#E5E7EB" style="fill:#E5E7EB;fill:color(display-p3 0.8980 0.9059 0.9216);fill-opacity:1;"/>
<rect x="110" y="32" width="40" height="6" rx="2" fill="#E5E7EB" style="fill:#E5E7EB;fill:color(display-p3 0.8980 0.9059 0.9216);fill-opacity:1;"/>
<rect x="110" y="42" width="40" height="6" rx="2" fill="#E5E7EB" style="fill:#E5E7EB;fill:color(display-p3 0.8980 0.9059 0.9216);fill-opacity:1;"/>
<defs>
<filter id="filter0_ddd_1011_19173" x="106" y="77" width="48" height="20" filterUnits="userSpaceOnUse" color-interpolation-filters="sRGB">
<feFlood flood-opacity="0" result="BackgroundImageFix"/>
<feColorMatrix in="SourceAlpha" type="matrix" values="0 0 0 0 0 0 0 0 0 0 0 0 0 0 0 0 0 0 127 0" result="hardAlpha"/>
<feOffset dy="2"/>
<feGaussianBlur stdDeviation="2"/>
<feComposite in2="hardAlpha" operator="out"/>
<feColorMatrix type="matrix" values="0 0 0 0 0.0117647 0 0 0 0 0.027451 0 0 0 0 0.0705882 0 0 0 0.04 0"/>
<feBlend mode="normal" in2="BackgroundImageFix" result="effect1_dropShadow_1011_19173"/>
<feColorMatrix in="SourceAlpha" type="matrix" values="0 0 0 0 0 0 0 0 0 0 0 0 0 0 0 0 0 0 127 0" result="hardAlpha"/>
<feMorphology radius="1" operator="erode" in="SourceAlpha" result="effect2_dropShadow_1011_19173"/>
<feOffset dy="1"/>
<feGaussianBlur stdDeviation="1"/>
<feComposite in2="hardAlpha" operator="out"/>
<feColorMatrix type="matrix" values="0 0 0 0 0.0117647 0 0 0 0 0.027451 0 0 0 0 0.0705882 0 0 0 0.08 0"/>
<feBlend mode="normal" in2="effect1_dropShadow_1011_19173" result="effect2_dropShadow_1011_19173"/>
<feColorMatrix in="SourceAlpha" type="matrix" values="0 0 0 0 0 0 0 0 0 0 0 0 0 0 0 0 0 0 127 0" result="hardAlpha"/>
<feMorphology radius="1" operator="dilate" in="SourceAlpha" result="effect3_dropShadow_1011_19173"/>
<feOffset/>
<feComposite in2="hardAlpha" operator="out"/>
<feColorMatrix type="matrix" values="0 0 0 0 0.0117647 0 0 0 0 0.027451 0 0 0 0 0.0705882 0 0 0 0.08 0"/>
<feBlend mode="normal" in2="effect2_dropShadow_1011_19173" result="effect3_dropShadow_1011_19173"/>
<feBlend mode="normal" in="SourceGraphic" in2="effect3_dropShadow_1011_19173" result="shape"/>
</filter>
</defs>
</svg>
